<?xml version="1.0" encoding="utf-8"?>
<!-- Generator: Adobe Illustrator 24.0.1, SVG Export Plug-In . SVG Version: 6.00 Build 0)  -->
<svg version="1.1"
	 id="svg7430" inkscape:version="0.48.0 r9654" sodipodi:docname="New document 28" xmlns:cc="http://creativecommons.org/ns#" xmlns:dc="http://purl.org/dc/elements/1.1/" xmlns:inkscape="http://www.inkscape.org/namespaces/inkscape" xmlns:rdf="http://www.w3.org/1999/02/22-rdf-syntax-ns#" xmlns:sodipodi="http://sodipodi.sourceforge.net/DTD/sodipodi-0.dtd" xmlns:svg="http://www.w3.org/2000/svg"
	 xmlns="http://www.w3.org/2000/svg" xmlns:xlink="http://www.w3.org/1999/xlink" x="0px" y="0px" viewBox="0 0 605.2 593.9"
	 style="enable-background:new 0 0 605.2 593.9;" xml:space="preserve">
<style type="text/css">
	.st0{clip-path:url(#SVGID_2_);filter:url(#filter6654);}
	.st1{fill:url(#SVGID_3_);}
	.st2{clip-path:url(#SVGID_5_);filter:url(#filter6650);}
	.st3{fill:url(#SVGID_6_);}
	.st4{clip-path:url(#SVGID_8_);filter:url(#filter6646);}
	.st5{fill:url(#SVGID_9_);}
	.st6{fill:none;stroke:#807EAD;stroke-width:0.6545;stroke-linejoin:round;}
	.st7{clip-path:url(#SVGID_11_);filter:url(#filter6642);}
	.st8{fill:url(#SVGID_12_);}
	.st9{fill:none;stroke:#807EAD;stroke-width:0.7875;stroke-linejoin:round;}
	.st10{clip-path:url(#SVGID_14_);filter:url(#filter6638);}
	.st11{fill:url(#SVGID_15_);}
	.st12{fill:none;stroke:#807EAD;stroke-width:1.0828;stroke-linejoin:round;}
	.st13{clip-path:url(#SVGID_17_);filter:url(#filter6634);}
	.st14{fill:url(#SVGID_18_);}
	.st15{fill:none;stroke:#E3D7EB;stroke-width:1.5;stroke-linecap:round;stroke-linejoin:round;}
	.st16{fill:url(#SVGID_19_);}
</style>
<filter  color-interpolation-filters="sRGB" id="filter6654" inkscape:collect="always">
	<feGaussianBlur  id="feGaussianBlur6656" inkscape:collect="always" stdDeviation="0.44943121"></feGaussianBlur>
</filter>
<filter  color-interpolation-filters="sRGB" id="filter6650" inkscape:collect="always">
	<feGaussianBlur  id="feGaussianBlur6652" inkscape:collect="always" stdDeviation="0.40403781"></feGaussianBlur>
</filter>
<filter  color-interpolation-filters="sRGB" id="filter6646" inkscape:collect="always">
	<feGaussianBlur  id="feGaussianBlur6648" inkscape:collect="always" stdDeviation="0.13181277"></feGaussianBlur>
</filter>
<filter  color-interpolation-filters="sRGB" id="filter6642" inkscape:collect="always">
	<feGaussianBlur  id="feGaussianBlur6644" inkscape:collect="always" stdDeviation="0.15860075"></feGaussianBlur>
</filter>
<filter  color-interpolation-filters="sRGB" id="filter6638" inkscape:collect="always">
	<feGaussianBlur  id="feGaussianBlur6640" inkscape:collect="always" stdDeviation="0.21808078"></feGaussianBlur>
</filter>
<filter  color-interpolation-filters="sRGB" id="filter6634" inkscape:collect="always">
	<feGaussianBlur  id="feGaussianBlur6636" inkscape:collect="always" stdDeviation="0.2942314"></feGaussianBlur>
</filter>
<sodipodi:namedview  bordercolor="#666666" borderopacity="1.0" fit-margin-bottom="0" fit-margin-left="0" fit-margin-right="0" fit-margin-top="0" id="base" inkscape:current-layer="layer1" inkscape:cx="30.69371" inkscape:cy="30.209857" inkscape:document-units="px" inkscape:pageopacity="0.0" inkscape:pageshadow="2" inkscape:window-height="459" inkscape:window-maximized="0" inkscape:window-width="465" inkscape:window-x="1004" inkscape:window-y="24" inkscape:zoom="0.35" pagecolor="#ffffff" showgrid="false">
	</sodipodi:namedview>
<g id="layer1" transform="translate(-344.30629,-502.16579)" inkscape:groupmode="layer" inkscape:label="Layer 1">
	<g id="g6666" transform="translate(65.43129,-284.80296)">
		<g>
			<defs>
				<path id="SVGID_1_" d="M358.7,791.8h451.7c40.7,0,73.7,34.9,73.7,77.9V1303c0,43-33,77.9-73.7,77.9H358.7
					c-40.7,0-73.7-34.9-73.7-77.9V869.7C285,826.7,318,791.8,358.7,791.8z"/>
			</defs>
			<clipPath id="SVGID_2_">
				<use xlink:href="#SVGID_1_"  style="overflow:visible;"/>
			</clipPath>
			<g id="rect5036" class="st0">
				
					<linearGradient id="SVGID_3_" gradientUnits="userSpaceOnUse" x1="972.1158" y1="424.1169" x2="1163.1873" y2="620.5707" gradientTransform="matrix(0.9589 0 0 -1.0136 -254.4799 1388.9551)">
					<stop  offset="0" style="stop-color:#FFFFFF"/>
					<stop  offset="1" style="stop-color:#FFFFFF;stop-opacity:0"/>
				</linearGradient>
				<rect x="279.6" y="792.8" class="st1" width="558.2" height="591.2"/>
			</g>
		</g>
		<g>
			<defs>
				<path id="SVGID_4_" d="M362,791.8h445.1c42.5,0,77,34.9,77,77.9V1303c0,43-34.5,77.9-77,77.9H362c-42.5,0-77-34.9-77-77.9V869.7
					C285,826.7,319.5,791.8,362,791.8z"/>
			</defs>
			<clipPath id="SVGID_5_">
				<use xlink:href="#SVGID_4_"  style="overflow:visible;"/>
			</clipPath>
			<g id="rect6113" class="st2">
				
					<linearGradient id="SVGID_6_" gradientUnits="userSpaceOnUse" x1="718.4148" y1="221.3001" x2="1211.175" y2="635.0812" gradientTransform="matrix(1.0903 0 0 -1.1031 -331.2402 1450.8165)">
					<stop  offset="0" style="stop-color:#8D89C2"/>
					<stop  offset="1" style="stop-color:#FFFFF9;stop-opacity:0.9828"/>
				</linearGradient>
				<rect x="240.9" y="794.7" class="st3" width="634.7" height="643.4"/>
			</g>
		</g>
		<g>
			<defs>
				<path id="SVGID_7_" d="M362.6,791.8h443.9c42.8,0,77.5,34.9,77.5,77.9V1303c0,43-34.7,77.9-77.5,77.9H362.6
					c-42.8,0-77.5-34.9-77.5-77.9V869.7C285,826.7,319.8,791.8,362.6,791.8z"/>
			</defs>
			<clipPath id="SVGID_8_">
				<use xlink:href="#SVGID_7_"  style="overflow:visible;"/>
			</clipPath>
			
				<g id="path5872" sodipodi:cx="95.123322" sodipodi:cy="477.94135" sodipodi:end="1.5681251" sodipodi:rx="23.0602" sodipodi:ry="23.0602" sodipodi:start="0" sodipodi:type="arc" class="st4">
				
					<linearGradient id="SVGID_9_" gradientUnits="userSpaceOnUse" x1="362.9002" y1="819.5276" x2="269.975" y2="913.3604" gradientTransform="matrix(0 -3.3685 -3.3545 0 3640.9282 2004.4824)">
					<stop  offset="0" style="stop-color:#8D89C2"/>
					<stop  offset="1" style="stop-color:#FFFFF9;stop-opacity:0.9828"/>
				</linearGradient>
				<path class="st5" d="M269.4,629c426.4,0,772.4,346.5,773.6,774.7l-773.6,2.1V629z"/>
				<path class="st6" d="M269.4,629c426.4,0,772.4,346.5,773.6,774.7l-773.6,2.1V629z"/>
			</g>
		</g>
		<g>
			<defs>
				<path id="SVGID_10_" d="M358.9,791.8h451.3c40.8,0,73.8,34.9,73.8,77.9V1303c0,43-33.1,77.9-73.8,77.9H358.9
					c-40.8,0-73.8-34.9-73.8-77.9V869.7C285,826.7,318.1,791.8,358.9,791.8z"/>
			</defs>
			<clipPath id="SVGID_11_">
				<use xlink:href="#SVGID_10_"  style="overflow:visible;"/>
			</clipPath>
			
				<g id="path5876" sodipodi:cx="95.123322" sodipodi:cy="477.94135" sodipodi:end="1.5681251" sodipodi:rx="23.0602" sodipodi:ry="23.0602" sodipodi:start="0" sodipodi:type="arc" class="st7">
				
					<linearGradient id="SVGID_12_" gradientUnits="userSpaceOnUse" x1="314.8504" y1="821.7659" x2="207.4596" y2="938.1334" gradientTransform="matrix(0 -2.8689 -2.7205 0 3005.4717 1820.778)">
					<stop  offset="0" style="stop-color:#8D89C2"/>
					<stop  offset="1" style="stop-color:#FFFFF9;stop-opacity:0.9828"/>
				</linearGradient>
				<path class="st8" d="M273.2,765.6c345.8,0,626.4,295.1,627.4,659.8l-627.4,1.8V765.6z"/>
				<path class="st9" d="M273.2,765.6c345.8,0,626.4,295.1,627.4,659.8l-627.4,1.8V765.6z"/>
			</g>
		</g>
		<g>
			<defs>
				<path id="SVGID_13_" d="M360.1,791.8H809c41.5,0,75.1,34.9,75.1,77.9V1303c0,43-33.6,77.9-75.1,77.9H360.1
					c-41.5,0-75.1-34.9-75.1-77.9V869.7C285,826.7,318.6,791.8,360.1,791.8z"/>
			</defs>
			<clipPath id="SVGID_14_">
				<use xlink:href="#SVGID_13_"  style="overflow:visible;"/>
			</clipPath>
			
				<g id="path5026" sodipodi:cx="95.123322" sodipodi:cy="477.94135" sodipodi:end="1.5681251" sodipodi:rx="23.0602" sodipodi:ry="23.0602" sodipodi:start="0" sodipodi:type="arc" class="st10">
				
					<linearGradient id="SVGID_15_" gradientUnits="userSpaceOnUse" x1="237.8315" y1="822.5129" x2="122.0577" y2="953.231" gradientTransform="matrix(0 -2.0693 -1.9949 0 2277.2551 1519.9913)">
					<stop  offset="0" style="stop-color:#8D89C2"/>
					<stop  offset="1" style="stop-color:#FFFFF9;stop-opacity:0.9828"/>
				</linearGradient>
				<path class="st11" d="M268.4,916.7c253.6,0,459.4,212.9,460,475.9l-460,1.3V916.7z"/>
				<path class="st12" d="M268.4,916.7c253.6,0,459.4,212.9,460,475.9l-460,1.3V916.7z"/>
			</g>
		</g>
		<g>
			<defs>
				<path id="SVGID_16_" d="M361.4,791.8h446.2c42.2,0,76.4,34.9,76.4,77.9V1303c0,43-34.2,77.9-76.4,77.9H361.4
					c-42.2,0-76.4-34.9-76.4-77.9V869.7C285,826.7,319.2,791.8,361.4,791.8z"/>
			</defs>
			<clipPath id="SVGID_17_">
				<use xlink:href="#SVGID_16_"  style="overflow:visible;"/>
			</clipPath>
			
				<g id="path5849" sodipodi:cx="95.123322" sodipodi:cy="477.94135" sodipodi:end="1.5681251" sodipodi:rx="23.0602" sodipodi:ry="23.0602" sodipodi:start="0" sodipodi:type="arc" class="st13">
				
					<linearGradient id="SVGID_18_" gradientUnits="userSpaceOnUse" x1="97.0198" y1="859.17" x2="-44.2906" y2="1000.5375" gradientTransform="matrix(0 -1.5205 -1.4915 0 1771.748 1316.6576)">
					<stop  offset="0" style="stop-color:#6F1171"/>
					<stop  offset="1" style="stop-color:#BEA1C7"/>
				</linearGradient>
				<path class="st14" d="M262.2,1051.4c189.6,0,343.4,156.4,343.9,349.7l-343.9,0.9V1051.4z"/>
			</g>
		</g>
		<path id="rect6215-8" class="st15" d="M357.5,787.7h443.3c43,0,77.9,34.9,77.9,77.9v433.3c0,43-34.9,77.9-77.9,77.9H357.5
			c-43,0-77.9-34.9-77.9-77.9V865.6C279.6,822.6,314.5,787.7,357.5,787.7z"/>
	</g>
</g>
<linearGradient id="SVGID_19_" gradientUnits="userSpaceOnUse" x1="127.2934" y1="256.4523" x2="598.5784" y2="256.4523">
	<stop  offset="2.867118e-03" style="stop-color:#8768B3"/>
	<stop  offset="1" style="stop-color:#9F96D6"/>
</linearGradient>
<path class="st16" d="M127.3,87.4L320,61v186.2H127.3 M343.2,57.3L598.6,20v225.7H343.2 M127.3,266.9H320v186.8l-192.7-27
	 M343.2,269.4h255.3v223.5l-255.3-36.2"/>
</svg>
